<svg xmlns="http://www.w3.org/2000/svg" viewBox="0 0 286 128" width="286" height="128" role="img"><title>Teampot Balanced Mobile 16 32 64 px check</title><g transform="translate(18 74) scale(0.0625)"><rect x="90" y="28" width="76" height="16" rx="8" fill="#141414"/><rect x="124" y="44" width="8" height="34" rx="4" fill="#141414"/><rect x="48" y="83" width="160" height="14" rx="7" fill="#141414" transform="rotate(-7 128 90)"/><rect x="70" y="111" width="8" height="39" rx="4" fill="#141414"/><rect x="182" y="96" width="8" height="42" rx="4" fill="#141414"/><rect x="50" y="145" width="94" height="12" rx="6" fill="#141414" transform="rotate(8 97 151)"/><rect x="104" y="158" width="8" height="33" rx="4" fill="#141414"/><rect x="78" y="194" width="100" height="12" rx="6" fill="#141414" transform="rotate(-5 128 200)"/><rect x="33" y="112" width="42" height="42" rx="12" fill="#E8552D"/><rect x="171" y="132" width="48" height="48" rx="14" fill="#141414"/><rect x="78" y="164" width="40" height="40" rx="11" fill="#141414"/><rect x="139" y="188" width="44" height="44" rx="12" fill="#E8552D"/><circle cx="128" cy="82" r="11" fill="#E8552D"/></g><g transform="translate(110 66) scale(0.125)"><rect x="90" y="28" width="76" height="16" rx="8" fill="#141414"/><rect x="124" y="44" width="8" height="34" rx="4" fill="#141414"/><rect x="48" y="83" width="160" height="14" rx="7" fill="#141414" transform="rotate(-7 128 90)"/><rect x="70" y="111" width="8" height="39" rx="4" fill="#141414"/><rect x="182" y="96" width="8" height="42" rx="4" fill="#141414"/><rect x="50" y="145" width="94" height="12" rx="6" fill="#141414" transform="rotate(8 97 151)"/><rect x="104" y="158" width="8" height="33" rx="4" fill="#141414"/><rect x="78" y="194" width="100" height="12" rx="6" fill="#141414" transform="rotate(-5 128 200)"/><rect x="33" y="112" width="42" height="42" rx="12" fill="#E8552D"/><rect x="171" y="132" width="48" height="48" rx="14" fill="#141414"/><rect x="78" y="164" width="40" height="40" rx="11" fill="#141414"/><rect x="139" y="188" width="44" height="44" rx="12" fill="#E8552D"/><circle cx="128" cy="82" r="11" fill="#E8552D"/></g><g transform="translate(202 50) scale(0.25)"><rect x="90" y="28" width="76" height="16" rx="8" fill="#141414"/><rect x="124" y="44" width="8" height="34" rx="4" fill="#141414"/><rect x="48" y="83" width="160" height="14" rx="7" fill="#141414" transform="rotate(-7 128 90)"/><rect x="70" y="111" width="8" height="39" rx="4" fill="#141414"/><rect x="182" y="96" width="8" height="42" rx="4" fill="#141414"/><rect x="50" y="145" width="94" height="12" rx="6" fill="#141414" transform="rotate(8 97 151)"/><rect x="104" y="158" width="8" height="33" rx="4" fill="#141414"/><rect x="78" y="194" width="100" height="12" rx="6" fill="#141414" transform="rotate(-5 128 200)"/><rect x="33" y="112" width="42" height="42" rx="12" fill="#E8552D"/><rect x="171" y="132" width="48" height="48" rx="14" fill="#141414"/><rect x="78" y="164" width="40" height="40" rx="11" fill="#141414"/><rect x="139" y="188" width="44" height="44" rx="12" fill="#E8552D"/><circle cx="128" cy="82" r="11" fill="#E8552D"/></g></svg>
